<?xml version="1.0" encoding="UTF-8" standalone="no"?>
<!-- Created with Inkscape (http://www.inkscape.org/) -->

<svg
   width="17.843414mm"
   height="22.497192mm"
   viewBox="0 0 17.843414 22.497192"
   version="1.1"
   id="svg5"
   xml:space="preserve"
   sodipodi:docname="partner1.svg"
   inkscape:version="1.2.2 (732a01da63, 2022-12-09)"
   xmlns:inkscape="http://www.inkscape.org/namespaces/inkscape"
   xmlns:sodipodi="http://sodipodi.sourceforge.net/DTD/sodipodi-0.dtd"
   xmlns="http://www.w3.org/2000/svg"
   xmlns:svg="http://www.w3.org/2000/svg"><sodipodi:namedview
     id="namedview9"
     pagecolor="#ffffff"
     bordercolor="#000000"
     borderopacity="0.25"
     inkscape:showpageshadow="2"
     inkscape:pageopacity="0.0"
     inkscape:pagecheckerboard="0"
     inkscape:deskcolor="#d1d1d1"
     inkscape:document-units="mm"
     showgrid="false"
     inkscape:zoom="2.4374106"
     inkscape:cx="28.103594"
     inkscape:cy="30.360087"
     inkscape:window-width="1920"
     inkscape:window-height="1009"
     inkscape:window-x="-8"
     inkscape:window-y="-8"
     inkscape:window-maximized="1"
     inkscape:current-layer="g26" /><defs
     id="defs2" /><g
     id="layer1"
     transform="translate(455.12336,222.21555)"><g
       fill="#ffffff"
       id="g26"
       transform="matrix(0.2645751,0,0,0.2645751,416.53321,263.36009)"
       style="fill:#999999"><g
         id="g292"><g
           aria-label="studio"
           transform="matrix(0.18257,0,0,0.18257,-3185.197,-1855.013)"
           id="text22"
           style="font-weight:300;line-height:0%;font-family:Raleway;-inkscape-font-specification:'Raleway Light';letter-spacing:0;word-spacing:0"><path
             d="m -484.11911,560.92843 q 0,5.53631 -4.5955,9.08245 -4.55932,3.54613 -12.48385,3.54613 -4.48695,0 -8.25019,-1.04936 -3.72707,-1.08555 -6.26002,-2.35203 v -7.63505 h 0.36185 q 3.22047,2.4244 7.16464,3.8718 3.94417,1.41122 7.56268,1.41122 4.48695,0 7.0199,-1.4474 2.53296,-1.44741 2.53296,-4.55932 0,-2.38821 -1.37504,-3.61851 -1.37503,-1.23029 -5.28301,-2.09873 -1.44741,-0.32567 -3.79944,-0.75989 -2.31584,-0.43422 -4.23365,-0.94081 -5.3192,-1.41122 -7.56268,-4.12509 -2.20728,-2.75007 -2.20728,-6.73043 0,-2.49676 1.01318,-4.70405 1.04936,-2.20729 3.1481,-3.94418 2.02636,-1.70069 5.13828,-2.67769 3.1481,-1.01318 7.0199,-1.01318 3.6185,0 7.30938,0.90463 3.72706,0.86844 6.18765,2.13491 v 7.2732 h -0.36186 q -2.60532,-1.91781 -6.33238,-3.22047 -3.72706,-1.33885 -7.30938,-1.33885 -3.72706,0 -6.2962,1.44741 -2.56914,1.41121 -2.56914,4.23365 0,2.49677 1.55596,3.76324 1.51977,1.26648 4.92116,2.06255 1.88163,0.43422 4.19747,0.86844 2.35203,0.43422 3.90799,0.79608 4.74024,1.08555 7.30938,3.72706 2.56914,2.67769 2.56914,7.09227 z"
             style="font-weight:400;font-size:74.107px;line-height:1.25;font-family:Ubuntu;-inkscape-font-specification:Ubuntu"
             id="path271" /><path
             d="m -453.398,572.21817 q -1.9178,0.50659 -4.19746,0.83225 -2.24348,0.32567 -4.01654,0.32567 -6.18765,0 -9.40812,-3.32903 -3.22047,-3.32902 -3.22047,-10.67459 v -21.49393 h -4.5955 v -5.71723 h 4.5955 V 520.5459 h 6.80279 v 11.61541 h 14.0398 v 5.71723 h -14.0398 v 18.4182 q 0,3.18429 0.14474,4.99354 0.14474,1.77307 1.01318,3.32902 0.79607,1.44741 2.17111,2.13492 1.41121,0.65133 4.26983,0.65133 1.66452,0 3.47377,-0.4704 1.80925,-0.50659 2.60532,-0.83226 h 0.36185 z"
             style="font-weight:400;font-size:74.107px;line-height:1.25;font-family:Ubuntu;-inkscape-font-specification:Ubuntu"
             id="path273" /><path
             d="m -411.67662,572.58002 h -6.80279 v -4.48695 q -3.43758,2.71388 -6.58568,4.16128 -3.1481,1.4474 -6.94753,1.4474 -6.36857,0 -9.91471,-3.8718 -3.54613,-3.90798 -3.54613,-11.43448 v -26.23416 h 6.80279 V 555.175 q 0,3.07573 0.28948,5.28302 0.28948,2.17111 1.23029,3.72706 0.977,1.59215 2.53295,2.31585 1.55596,0.7237 4.52314,0.7237 2.64151,0 5.75342,-1.37503 3.1481,-1.37504 5.86198,-3.50995 v -30.17834 h 6.80279 z"
             style="font-weight:400;font-size:74.107px;line-height:1.25;font-family:Ubuntu;-inkscape-font-specification:Ubuntu"
             id="path275" /><path
             d="m -365.50449,572.58002 h -6.80279 v -4.23365 q -2.93099,2.53295 -6.11528,3.94417 -3.18428,1.41121 -6.91134,1.41121 -7.23702,0 -11.50685,-5.5725 -4.23365,-5.57249 -4.23365,-15.45102 0,-5.13827 1.4474,-9.15482 1.48358,-4.01654 3.98035,-6.83897 2.46059,-2.75007 5.71724,-4.19747 3.29284,-1.4474 6.80279,-1.4474 3.18429,0 5.64487,0.68751 2.46059,0.65134 5.17447,2.06255 v -17.51357 h 6.80279 z m -6.80279,-9.95089 V 539.4345 q -2.75007,-1.23029 -4.92117,-1.7007 -2.1711,-0.4704 -4.74024,-0.4704 -5.71724,0 -8.90153,3.98036 -3.18428,3.98035 -3.18428,11.28973 0,7.20083 2.46058,10.96408 2.46058,3.72706 7.88834,3.72706 2.89481,0 5.86198,-1.26648 2.96718,-1.30266 5.53632,-3.32902 z"
             style="font-weight:400;font-size:74.107px;line-height:1.25;font-family:Ubuntu;-inkscape-font-specification:Ubuntu"
             id="path277" /><path
             d="m -344.80664,525.3947 h -7.67123 v -7.05609 h 7.67123 z m -0.43422,47.18532 h -6.80279 v -40.41871 h 6.80279 z"
             style="font-weight:400;font-size:74.107px;line-height:1.25;font-family:Ubuntu;-inkscape-font-specification:Ubuntu"
             id="path279" /><path
             d="m -297.33183,552.38875 q 0,9.87853 -5.06591,15.59576 -5.06591,5.71724 -13.5694,5.71724 -8.57586,0 -13.64176,-5.71724 -5.02973,-5.71723 -5.02973,-15.59576 0,-9.87852 5.02973,-15.59576 5.0659,-5.75342 13.64176,-5.75342 8.50349,0 13.5694,5.75342 5.06591,5.71724 5.06591,15.59576 z m -7.0199,0 q 0,-7.85215 -3.07573,-11.65159 -3.07573,-3.83561 -8.53968,-3.83561 -5.53631,0 -8.61204,3.83561 -3.03955,3.79944 -3.03955,11.65159 0,7.59887 3.07573,11.54304 3.07573,3.90798 8.57586,3.90798 5.42776,0 8.50349,-3.8718 3.11192,-3.90798 3.11192,-11.57922 z"
             style="font-weight:400;font-size:74.107px;line-height:1.25;font-family:Ubuntu;-inkscape-font-specification:Ubuntu"
             id="path281" /></g><path
           d="m -3252.679,-1765.227 c -0.948,-0.08 -2.255,-0.28 -2.893,-0.442 -1.113,-0.281 -1.637,-0.53 -2.708,-1.28 a 10.332,10.332 0 0 0 -1.174,-0.706 l -1.73,-0.84 c -2.002,-0.974 -2.891,-1.246 -4.463,-1.367 -0.974,-0.074 -2.1,-0.025 -4.83,0.212 -1.903,0.164 -1.94,0.17 -3.613,0.584 -1.61,0.399 -2.06,0.463 -2.952,0.425 -1.412,-0.061 -2.92,-0.7 -4.341,-1.84 -1.279,-1.024 -2.697,-2.732 -4.489,-5.404 -1.775,-2.648 -2.533,-5.03 -3.44,-10.807 -0.597,-3.798 -1.083,-5.716 -3.018,-11.907 -1.848,-5.916 -2.145,-7.302 -2.21,-10.323 -0.101,-4.769 0.402,-7.472 1.753,-9.427 0.722,-1.044 2.117,-2.495 2.915,-3.03 0.91,-0.611 1.601,-0.82 3.73,-1.123 0.806,-0.115 1.794,-0.288 2.195,-0.384 1.33,-0.32 2.558,-0.942 3.144,-1.594 0.454,-0.504 0.717,-0.936 1.504,-2.467 1.156,-2.247 1.642,-2.99 2.54,-3.88 2.03,-2.012 5.74,-3.684 9.446,-4.256 3.335,-0.515 6.142,-0.134 8.857,1.202 2.224,1.094 4.543,3.027 5.593,4.664 0.428,0.666 1.476,3.243 1.887,4.64 0.491,1.668 0.938,2.407 2.583,4.275 0.298,0.34 0.807,0.973 1.131,1.408 0.324,0.436 0.805,1.07 1.068,1.408 0.59,0.76 0.703,0.956 1.08,1.876 0.362,0.883 0.42,0.984 1.3,2.288 0.801,1.19 1.373,1.871 2.09,2.495 1.027,0.891 1.714,1.24 3.973,2.02 2.986,1.03 3.92,1.52 5.141,2.69 1.27,1.215 2.18,2.462 3,4.109 1.068,2.14 1.823,4.47 2.312,7.134 l 0.161,0.88 0.019,3.635 c 0.017,3.443 0.012,3.676 -0.104,4.428 -0.445,2.893 -1.3,5.608 -2.523,8.01 -2.236,4.394 -6.468,8.645 -10.748,10.797 -1.975,0.993 -3.727,1.48 -6.555,1.818 -0.926,0.11 -4.643,0.163 -5.63,0.079 z m 6.335,-8.736 c 1.103,-0.191 1.575,-0.345 2.539,-0.828 0.59,-0.295 0.604,-0.303 1.047,-0.59 0.658,-0.427 1.792,-1.49 2.15,-2.014 0.087,-0.129 0.189,-0.26 0.225,-0.293 0.098,-0.087 0.568,-0.83 0.818,-1.294 l 0.267,-0.495 c 0.136,-0.251 0.462,-1.01 0.462,-1.075 0,-0.041 0.025,-0.1 0.055,-0.13 0.06,-0.063 0.17,-0.358 0.392,-1.053 0.082,-0.258 0.171,-0.522 0.198,-0.587 0.12,-0.288 0.354,-1.187 0.558,-2.14 0.308,-1.435 0.435,-3.271 0.33,-4.763 -0.075,-1.073 -0.193,-1.968 -0.334,-2.525 a 2.852,2.852 0 0 1 -0.085,-0.47 0.809,0.809 0 0 0 -0.088,-0.3 0.774,0.774 0 0 1 -0.087,-0.277 c 0,-0.119 -0.369,-1.26 -0.504,-1.558 a 0.997,0.997 0 0 1 -0.083,-0.245 0.813,0.813 0 0 0 -0.083,-0.226 c -0.046,-0.09 -0.324,-0.656 -0.618,-1.256 -0.295,-0.6 -0.627,-1.228 -0.738,-1.398 a 3.218,3.218 0 0 1 -0.203,-0.332 c 0,-0.089 -1.32,-1.925 -2.325,-3.233 -0.622,-0.81 -1.278,-1.386 -1.957,-1.717 -0.145,-0.07 -0.312,-0.154 -0.371,-0.185 -0.22,-0.118 -1.066,-0.19 -1.456,-0.126 -0.347,0.058 -1.019,0.343 -1.429,0.605 -0.096,0.063 -0.228,0.14 -0.293,0.174 a 3.86,3.86 0 0 0 -0.273,0.162 c -0.086,0.056 -0.284,0.18 -0.44,0.274 -0.156,0.094 -0.35,0.233 -0.43,0.308 -0.08,0.074 -0.163,0.136 -0.185,0.136 -0.124,0 -1.099,0.822 -1.747,1.473 -0.768,0.772 -1.065,1.134 -1.622,1.97 -0.364,0.547 -1.257,2.265 -1.257,2.419 a 0.71,0.71 0 0 1 -0.081,0.229 4.664,4.664 0 0 0 -0.173,0.39 64.65,64.65 0 0 0 -0.593,1.584 3.913,3.913 0 0 1 -0.162,0.406 1.85,1.85 0 0 0 -0.108,0.264 c -0.026,0.083 -0.103,0.296 -0.172,0.474 -0.323,0.835 -0.59,1.713 -0.732,2.404 -0.304,1.483 -0.334,1.948 -0.263,4.018 0.033,0.968 0.084,1.932 0.112,2.141 0.144,1.087 0.267,1.733 0.45,2.376 0.25,0.882 0.31,1.064 0.545,1.642 0.092,0.229 0.306,0.706 0.362,0.81 0.032,0.057 0.138,0.255 0.237,0.44 a 10.463,10.463 0 0 0 1.835,2.426 c 0.314,0.311 0.68,0.641 0.815,0.733 0.135,0.092 0.274,0.193 0.308,0.225 0.035,0.032 0.167,0.112 0.294,0.176 0.126,0.065 0.243,0.13 0.26,0.147 0.17,0.17 1.367,0.584 2.082,0.72 0.685,0.13 1.743,0.124 2.551,-0.016 z m -1.848,-4.136 c -1.232,-0.227 -2.294,-1.062 -2.834,-2.229 -0.074,-0.16 -0.16,-0.339 -0.19,-0.395 a 0.457,0.457 0 0 1 -0.055,-0.167 0.98,0.98 0 0 0 -0.083,-0.25 6.22,6.22 0 0 1 -0.207,-0.625 28.92,28.92 0 0 0 -0.18,-0.619 c -0.067,-0.21 -0.16,-0.632 -0.24,-1.082 a 11.006,11.006 0 0 0 -0.114,-0.557 c -0.032,-0.129 -0.086,-0.686 -0.122,-1.239 -0.087,-1.367 0.018,-2.864 0.273,-3.893 0.182,-0.734 0.346,-1.324 0.384,-1.379 0.023,-0.032 0.06,-0.15 0.084,-0.264 0.023,-0.113 0.062,-0.231 0.085,-0.264 0.023,-0.032 0.102,-0.23 0.176,-0.44 0.073,-0.21 0.17,-0.464 0.215,-0.566 a 0.955,0.955 0 0 0 0.08,-0.273 c 0,-0.05 0.038,-0.164 0.084,-0.256 a 5.14,5.14 0 0 0 0.176,-0.415 c 0.19,-0.512 0.293,-0.759 0.483,-1.168 0.108,-0.232 0.196,-0.45 0.196,-0.484 0,-0.035 0.024,-0.064 0.053,-0.064 0.029,0 0.068,-0.063 0.088,-0.141 0.09,-0.363 0.934,-1.602 1.353,-1.988 0.251,-0.231 0.714,-0.53 1.058,-0.683 0.419,-0.186 1.27,-0.193 1.744,-0.015 0.608,0.23 1.078,0.57 1.688,1.228 0.371,0.4 1.055,1.345 1.055,1.458 0,0.022 0.073,0.162 0.163,0.31 0.089,0.15 0.224,0.43 0.299,0.623 0.075,0.194 0.174,0.435 0.219,0.537 a 0.949,0.949 0 0 1 0.082,0.282 0.6,0.6 0 0 0 0.065,0.221 c 0.066,0.122 0.164,0.523 0.32,1.306 0.156,0.788 0.316,2.735 0.316,3.842 0,1.933 -0.366,4.315 -0.795,5.182 a 0.802,0.802 0 0 0 -0.082,0.233 c 0,0.076 -0.595,1.27 -0.766,1.536 a 2.995,2.995 0 0 0 -0.153,0.264 c -0.085,0.185 -0.738,1.005 -1.024,1.287 -0.662,0.65 -1.475,1.066 -2.3,1.175 a 4.914,4.914 0 0 1 -1.594,-0.028 z m -14.752,-0.634 c 0.326,-0.2 0.408,-0.284 0.608,-0.627 0.368,-0.628 0.482,-1.406 0.296,-2.012 a 15.328,15.328 0 0 0 -0.358,-0.95 59.123,59.123 0 0 1 -0.57,-1.443 17.747,17.747 0 0 1 -0.302,-0.88 8.982,8.982 0 0 0 -0.237,-0.677 0.957,0.957 0 0 1 -0.082,-0.262 1.56,1.56 0 0 0 -0.082,-0.314 c -0.076,-0.222 -0.13,-0.41 -0.348,-1.204 -0.236,-0.864 -0.274,-1.088 -0.274,-1.64 0,-0.705 0.127,-1.065 0.582,-1.652 0.27,-0.348 1.108,-0.884 1.647,-1.053 0.08,-0.025 0.292,-0.103 0.47,-0.173 0.177,-0.07 0.401,-0.149 0.498,-0.176 0.783,-0.22 1.558,-0.663 2.106,-1.203 0.612,-0.603 0.877,-1.316 0.65,-1.75 a 0.801,0.801 0 0 1 -0.087,-0.229 c 0,-0.137 -0.421,-0.56 -0.706,-0.708 -0.415,-0.215 -1.109,-0.353 -1.552,-0.31 -0.482,0.048 -0.974,0.14 -1.115,0.208 -0.112,0.054 -0.346,0.112 -0.997,0.249 -0.425,0.089 -0.975,0.024 -1.244,-0.146 -0.316,-0.202 -0.414,-0.329 -0.554,-0.72 -0.116,-0.327 -0.12,-0.426 -0.09,-1.783 0.02,-0.79 0.061,-1.53 0.094,-1.643 a 5.7,5.7 0 0 0 0.117,-0.674 c 0.03,-0.258 0.086,-0.628 0.123,-0.821 0.134,-0.71 0.388,-1.925 0.497,-2.376 0.042,-0.177 0.12,-0.52 0.174,-0.763 0.285,-1.298 0.441,-1.903 0.594,-2.302 0.269,-0.704 0.307,-0.795 0.636,-1.525 0.962,-2.137 1.231,-2.634 1.666,-3.08 0.414,-0.423 0.953,-0.798 1.594,-1.11 0.421,-0.204 1.432,-0.605 1.526,-0.605 a 0.454,0.454 0 0 0 0.162,-0.055 c 0.056,-0.03 0.227,-0.114 0.381,-0.187 0.421,-0.198 0.653,-0.462 0.767,-0.873 0.092,-0.33 0.091,-0.374 0,-0.718 -0.134,-0.484 -0.361,-0.81 -0.736,-1.056 -0.472,-0.309 -0.68,-0.395 -1.178,-0.49 a 2.204,2.204 0 0 0 -0.91,-0.021 c -0.482,0.072 -1.155,0.25 -1.454,0.384 a 1.002,1.002 0 0 1 -0.245,0.083 c -0.059,0 -0.152,0.042 -0.635,0.288 a 5.966,5.966 0 0 0 -0.9,0.53 c -0.594,0.403 -1.481,1.309 -1.904,1.941 -0.473,0.709 -0.99,1.719 -1.38,2.696 -0.124,0.314 -0.183,0.456 -0.366,0.88 -0.05,0.113 -0.108,0.291 -0.13,0.396 -0.024,0.104 -0.067,0.204 -0.096,0.223 -0.03,0.018 -0.055,0.074 -0.055,0.124 0,0.05 -0.037,0.173 -0.082,0.275 -0.045,0.101 -0.15,0.396 -0.231,0.654 -0.18,0.567 -0.253,0.79 -0.338,1.04 a 4.983,4.983 0 0 0 -0.111,0.397 4.53,4.53 0 0 1 -0.108,0.381 c -0.116,0.336 -0.316,1.08 -0.717,2.669 -0.565,2.234 -0.604,2.645 -0.76,7.928 -0.052,1.776 -0.081,2.215 -0.17,2.527 -0.187,0.653 -0.49,1.019 -1.178,1.425 -0.888,0.523 -1.487,1.106 -1.825,1.775 l -0.199,0.393 v 0.94 c 0,0.888 0.01,0.957 0.145,1.215 0.267,0.502 0.768,0.573 1.85,0.259 0.315,-0.092 0.676,-0.154 0.895,-0.155 0.368,0 0.369,0 0.675,0.312 0.169,0.172 0.333,0.35 0.365,0.397 0.237,0.344 0.633,1.373 0.934,2.428 0.055,0.194 0.127,0.432 0.16,0.528 0.033,0.097 0.083,0.256 0.11,0.352 0.08,0.282 0.23,0.696 0.293,0.806 a 0.47,0.47 0 0 1 0.06,0.176 c 0,0.04 0.053,0.18 0.115,0.309 0.062,0.129 0.114,0.255 0.115,0.28 0,0.049 0.335,0.78 0.42,0.922 0.028,0.049 0.076,0.141 0.105,0.205 0.029,0.065 0.12,0.218 0.205,0.34 0.084,0.123 0.152,0.237 0.152,0.254 0,0.066 0.527,0.706 0.742,0.902 0.284,0.258 0.464,0.362 0.725,0.417 0.314,0.067 0.827,0 1.055,-0.142 z m -12.557,-5.674 c 0.29,-0.153 0.829,-0.666 0.963,-0.917 0.392,-0.735 0.36,-0.472 0.343,-2.805 a 81.784,81.784 0 0 0 -0.074,-3.109 c -0.032,-0.548 -0.082,-1.63 -0.111,-2.404 -0.03,-0.775 -0.084,-2.094 -0.123,-2.933 a 45.712,45.712 0 0 1 0.359,-8.27 c 0.036,-0.259 0.088,-0.653 0.116,-0.876 0.029,-0.223 0.068,-0.447 0.088,-0.498 0.02,-0.051 0.074,-0.318 0.12,-0.592 0.133,-0.808 0.489,-2.337 0.73,-3.138 0.068,-0.226 0.146,-0.503 0.173,-0.616 0.027,-0.113 0.077,-0.284 0.112,-0.381 0.034,-0.097 0.157,-0.466 0.272,-0.821 0.116,-0.355 0.232,-0.686 0.259,-0.735 a 1.54,1.54 0 0 0 0.09,-0.278 c 0.022,-0.104 0.065,-0.203 0.095,-0.222 0.03,-0.018 0.055,-0.078 0.056,-0.132 a 1.2,1.2 0 0 1 0.115,-0.334 1.37,1.37 0 0 0 0.115,-0.303 0.852,0.852 0 0 1 0.085,-0.235 c 0.045,-0.091 0.109,-0.232 0.141,-0.313 0.1,-0.247 0.306,-0.715 0.485,-1.098 0.094,-0.201 0.171,-0.38 0.171,-0.4 0,-0.034 1.14,-2.335 1.235,-2.49 0.029,-0.049 0.19,-0.326 0.356,-0.616 0.412,-0.717 0.768,-1.254 1.223,-1.848 0.545,-0.71 0.58,-0.75 1.571,-1.758 0.95,-0.967 1.44,-1.574 1.7,-2.108 0.212,-0.438 0.224,-1.018 0.03,-1.428 -0.169,-0.355 -0.52,-0.708 -0.86,-0.862 -0.642,-0.293 -1.9,-0.048 -2.445,0.477 -0.045,0.044 -0.398,0.356 -0.783,0.694 -1.367,1.2 -1.887,1.828 -2.964,3.588 -0.145,0.236 -0.284,0.438 -0.308,0.449 -0.025,0.01 -0.045,0.052 -0.045,0.091 0,0.04 -0.069,0.163 -0.153,0.274 -0.084,0.11 -0.19,0.281 -0.237,0.378 a 3.67,3.67 0 0 1 -0.198,0.352 4.779,4.779 0 0 0 -0.176,0.293 3.275,3.275 0 0 1 -0.272,0.448 6.118,6.118 0 0 0 -0.286,0.49 c -0.123,0.226 -0.311,0.57 -0.42,0.763 -0.32,0.574 -0.796,1.584 -1.188,2.522 -0.135,0.323 -0.283,0.67 -0.33,0.772 a 0.992,0.992 0 0 0 -0.084,0.244 0.82,0.82 0 0 1 -0.082,0.226 c -0.162,0.328 -0.27,0.612 -0.27,0.713 a 0.282,0.282 0 0 1 -0.048,0.16 c -0.027,0.03 -0.149,0.372 -0.27,0.76 -0.123,0.387 -0.272,0.855 -0.333,1.04 -0.061,0.186 -0.111,0.39 -0.111,0.452 0,0.062 -0.023,0.128 -0.052,0.146 -0.029,0.017 -0.07,0.157 -0.093,0.311 -0.023,0.154 -0.064,0.306 -0.09,0.338 -0.026,0.032 -0.076,0.19 -0.11,0.352 -0.08,0.383 -0.21,0.937 -0.288,1.232 a 18.32,18.32 0 0 0 -0.16,0.704 c -0.053,0.258 -0.134,0.62 -0.18,0.805 a 2.851,2.851 0 0 0 -0.083,0.51 c 0,0.095 -0.027,0.243 -0.06,0.33 -0.07,0.183 -0.13,0.574 -0.495,3.194 -0.19,1.37 -0.225,1.565 -0.302,1.739 a 1.184,1.184 0 0 0 -0.081,0.224 c 0,0.021 -0.096,0.13 -0.214,0.24 -0.168,0.159 -0.262,0.202 -0.442,0.202 -0.37,0 -0.73,-0.283 -0.9,-0.704 a 8.809,8.809 0 0 0 -0.115,-0.264 18.673,18.673 0 0 1 -0.378,-0.91 c -0.07,-0.177 -0.15,-0.375 -0.178,-0.44 a 36.09,36.09 0 0 1 -0.418,-1.143 8.138,8.138 0 0 0 -0.145,-0.381 27.862,27.862 0 0 1 -0.36,-0.939 c -0.255,-0.69 -0.74,-1.726 -1.013,-2.17 -0.08,-0.13 -0.195,-0.327 -0.257,-0.44 -0.155,-0.287 -0.663,-0.932 -0.906,-1.152 a 1.865,1.865 0 0 0 -2.284,-0.166 c -0.667,0.442 -0.942,1.326 -0.665,2.14 0.157,0.463 0.482,1.207 1.061,2.433 0.122,0.258 0.28,0.602 0.349,0.763 l 0.206,0.47 c 0.044,0.096 0.204,0.479 0.355,0.85 0.15,0.37 0.34,0.833 0.42,1.026 0.123,0.296 0.422,1.072 0.757,1.965 l 0.2,0.528 c 0.135,0.355 0.376,1.023 0.613,1.701 a 112.548,112.548 0 0 1 1.027,2.962 c 0.067,0.234 0.175,0.543 0.273,0.78 a 0.99,0.99 0 0 1 0.08,0.284 c 0,0.05 0.038,0.175 0.083,0.276 0.07,0.159 0.488,1.445 0.784,2.414 0.05,0.161 0.122,0.386 0.162,0.499 0.04,0.113 0.131,0.403 0.203,0.645 0.072,0.242 0.19,0.625 0.262,0.85 0.071,0.226 0.19,0.609 0.263,0.851 0.176,0.583 0.294,0.928 0.392,1.153 0.044,0.101 0.08,0.2 0.08,0.218 0,0.052 0.402,0.867 0.516,1.045 0.611,0.961 1.541,1.844 2.095,1.99 0.327,0.087 0.976,0.021 1.256,-0.127 z"
           id="path24"
           style="fill:#999999" /></g></g></g></svg>
