<?xml version="1.0" encoding="UTF-8" standalone="no"?>
<!-- Created with Inkscape (http://www.inkscape.org/) -->

<svg
   width="23.747253mm"
   height="15.26535mm"
   viewBox="0 0 23.747253 15.26535"
   version="1.1"
   id="svg5"
   xml:space="preserve"
   xmlns:inkscape="http://www.inkscape.org/namespaces/inkscape"
   xmlns:sodipodi="http://sodipodi.sourceforge.net/DTD/sodipodi-0.dtd"
   xmlns="http://www.w3.org/2000/svg"
   xmlns:svg="http://www.w3.org/2000/svg"><sodipodi:namedview
     id="namedview7"
     pagecolor="#ffffff"
     bordercolor="#000000"
     borderopacity="0.25"
     inkscape:showpageshadow="2"
     inkscape:pageopacity="0.0"
     inkscape:pagecheckerboard="0"
     inkscape:deskcolor="#d1d1d1"
     inkscape:document-units="mm"
     showgrid="false" /><defs
     id="defs2" /><g
     inkscape:label="Camada 1"
     inkscape:groupmode="layer"
     id="layer1"
     transform="translate(420.44947,217.26705)"><g
       aria-label="HAPPY
BITS"
       id="text283"
       style="font-size:7.21686px;fill:#999999;stroke:#999999;stroke-width:0.902107;stroke-linejoin:round"><path
         d="m -415.98473,-211.56897 h -0.69772 v -2.56889 h -2.61823 v 2.56889 h -0.69772 v -5.24702 h 0.69772 v 2.05793 h 2.61823 v -2.05793 h 0.69772 z"
         style="text-align:center;text-anchor:middle"
         id="path853" /><path
         d="m -410.43818,-211.56897 h -0.74353 l -0.51448,-1.4624 h -2.26937 l -0.51448,1.4624 h -0.7083 l 1.90993,-5.24702 h 0.9303 z m -1.47297,-2.06146 -0.91973,-2.57594 -0.92325,2.57594 z"
         style="text-align:center;text-anchor:middle"
         id="path855" /><path
         d="m -406.20955,-215.23026 q 0,0.34886 -0.12333,0.64839 -0.11981,0.29601 -0.33829,0.51449 -0.27134,0.27133 -0.64135,0.40876 -0.37,0.13391 -0.93382,0.13391 h -0.69772 v 1.95574 h -0.69773 v -5.24702 h 1.42364 q 0.4722,0 0.79992,0.0811 0.32772,0.0775 0.58143,0.24667 0.29953,0.20086 0.46163,0.50038 0.16562,0.29953 0.16562,0.75763 z m -0.72591,0.0176 q 0,-0.27134 -0.0952,-0.4722 -0.0951,-0.20085 -0.28895,-0.32771 -0.16915,-0.10924 -0.38763,-0.15505 -0.21495,-0.0493 -0.5462,-0.0493 h -0.69067 v 2.0967 h 0.58848 q 0.42287,0 0.68715,-0.074 0.26429,-0.0775 0.42992,-0.24315 0.16562,-0.16914 0.23257,-0.35591 0.0705,-0.18676 0.0705,-0.41934 z"
         style="text-align:center;text-anchor:middle"
         id="path857" /><path
         d="m -401.85759,-215.23026 q 0,0.34886 -0.12333,0.64839 -0.11981,0.29601 -0.33829,0.51449 -0.27134,0.27133 -0.64134,0.40876 -0.37001,0.13391 -0.93382,0.13391 h -0.69773 v 1.95574 h -0.69772 v -5.24702 h 1.42364 q 0.47219,0 0.79991,0.0811 0.32772,0.0775 0.58144,0.24667 0.29953,0.20086 0.46162,0.50038 0.16562,0.29953 0.16562,0.75763 z m -0.72591,0.0176 q 0,-0.27134 -0.0951,-0.4722 -0.0952,-0.20085 -0.28896,-0.32771 -0.16915,-0.10924 -0.38762,-0.15505 -0.21496,-0.0493 -0.5462,-0.0493 h -0.69068 v 2.0967 h 0.58849 q 0.42286,0 0.68715,-0.074 0.26429,-0.0775 0.42991,-0.24315 0.16562,-0.16914 0.23257,-0.35591 0.0705,-0.18676 0.0705,-0.41934 z"
         style="text-align:center;text-anchor:middle"
         id="path859" /><path
         d="m -397.15324,-216.81599 -1.8465,2.94594 v 2.30108 h -0.69772 v -2.22708 l -1.85355,-3.01994 h 0.77173 l 1.43421,2.34689 1.4483,-2.34689 z"
         style="text-align:center;text-anchor:middle"
         id="path861" /><path
         d="m -412.91721,-204.16182 q 0,0.39115 -0.148,0.69067 -0.14801,0.29953 -0.3982,0.49334 -0.296,0.23258 -0.65191,0.33125 -0.35239,0.0987 -0.89859,0.0987 h -1.86059 v -5.24703 h 1.55402 q 0.57439,0 0.85982,0.0423 0.28543,0.0423 0.5462,0.17619 0.28895,0.15153 0.41934,0.39115 0.13038,0.2361 0.13038,0.56734 0,0.37353 -0.19029,0.63782 -0.19029,0.26076 -0.50743,0.41934 v 0.0282 q 0.5321,0.10924 0.83867,0.46867 0.30658,0.35591 0.30658,0.90211 z m -1.17345,-2.36451 q 0,-0.19029 -0.0634,-0.32067 -0.0634,-0.13038 -0.20438,-0.21143 -0.16562,-0.0952 -0.40172,-0.11629 -0.2361,-0.0247 -0.58496,-0.0247 h -0.83163 v 1.51526 h 0.90211 q 0.32772,0 0.52153,-0.0317 0.19381,-0.0352 0.35943,-0.14096 0.16562,-0.10571 0.23258,-0.27133 0.0705,-0.16915 0.0705,-0.3982 z m 0.44753,2.3927 q 0,-0.31715 -0.0951,-0.50391 -0.0951,-0.18677 -0.34534,-0.31715 -0.16914,-0.0881 -0.41229,-0.11276 -0.23962,-0.0282 -0.58496,-0.0282 h -1.09592 v 1.95221 h 0.92325 q 0.4581,0 0.75058,-0.0458 0.29248,-0.0493 0.47925,-0.17619 0.19733,-0.13743 0.28895,-0.31362 0.0916,-0.1762 0.0916,-0.45458 z"
         style="text-align:center;text-anchor:middle"
         id="path863" /><path
         d="m -410.07698,-202.54789 h -2.07203 v -0.53563 h 0.68715 v -4.17577 h -0.68715 v -0.53563 h 2.07203 v 0.53563 h -0.68715 v 4.17577 h 0.68715 z"
         style="text-align:center;text-anchor:middle"
         id="path865" /><path
         d="m -405.14711,-207.17472 h -1.87469 v 4.62683 h -0.69772 v -4.62683 h -1.87469 v -0.6202 h 4.4471 z"
         style="text-align:center;text-anchor:middle"
         id="path867" /><path
         d="m -400.67181,-204.04553 q 0,0.30657 -0.14448,0.6061 -0.14095,0.29953 -0.39819,0.50743 -0.28191,0.22553 -0.65896,0.35239 -0.37353,0.12686 -0.90211,0.12686 -0.56734,0 -1.02192,-0.10572 -0.45105,-0.10571 -0.91973,-0.31362 v -0.87392 h 0.0493 q 0.39819,0.33125 0.91973,0.51096 0.52153,0.17972 0.97963,0.17972 0.64839,0 1.00782,-0.24315 0.36296,-0.24314 0.36296,-0.64839 0,-0.34886 -0.17267,-0.51448 -0.16915,-0.16562 -0.51801,-0.25724 -0.26429,-0.0705 -0.57439,-0.11629 -0.30657,-0.0458 -0.65191,-0.11629 -0.69772,-0.148 -1.03601,-0.50391 -0.33477,-0.35943 -0.33477,-0.93382 0,-0.65896 0.55677,-1.0783 0.55677,-0.42286 1.41307,-0.42286 0.55324,0 1.01487,0.10571 0.46162,0.10572 0.81753,0.26077 v 0.82458 h -0.0493 q -0.29953,-0.25372 -0.78935,-0.41934 -0.48629,-0.16914 -0.99725,-0.16914 -0.56029,0 -0.90211,0.23257 -0.33829,0.23258 -0.33829,0.59906 0,0.32772 0.16915,0.51448 0.16914,0.18676 0.59553,0.28543 0.22553,0.0493 0.64134,0.11981 0.41582,0.0705 0.70477,0.14448 0.58496,0.15505 0.88097,0.46868 0.296,0.31362 0.296,0.87744 z"
         style="text-align:center;text-anchor:middle"
         id="path869" /></g></g></svg>
