<?xml version="1.0" encoding="UTF-8" standalone="no"?>
<!-- Created with Inkscape (http://www.inkscape.org/) -->

<svg
   width="19.601418mm"
   height="13.743164mm"
   viewBox="0 0 19.601418 13.743164"
   version="1.1"
   id="svg5"
   xml:space="preserve"
   xmlns:inkscape="http://www.inkscape.org/namespaces/inkscape"
   xmlns:sodipodi="http://sodipodi.sourceforge.net/DTD/sodipodi-0.dtd"
   xmlns="http://www.w3.org/2000/svg"
   xmlns:svg="http://www.w3.org/2000/svg"><sodipodi:namedview
     id="namedview7"
     pagecolor="#ffffff"
     bordercolor="#000000"
     borderopacity="0.25"
     inkscape:showpageshadow="2"
     inkscape:pageopacity="0.0"
     inkscape:pagecheckerboard="0"
     inkscape:deskcolor="#d1d1d1"
     inkscape:document-units="mm"
     showgrid="false" /><defs
     id="defs2" /><g
     inkscape:label="Camada 1"
     inkscape:groupmode="layer"
     id="layer1"
     transform="translate(-74.811571,-73.180754)"><g
       id="g412"
       inkscape:export-filename="01.svg"
       inkscape:export-xdpi="96"
       inkscape:export-ydpi="96"><rect
         style="fill:none;stroke-width:0.34166;stroke-linejoin:round"
         id="rect303-4"
         width="19.601421"
         height="13.743163"
         x="74.811569"
         y="73.180756" /><path
         d="m 82.01169,85.486325 c -0.7295,-0.26115 -1.88219,-0.80056 -2.56153,-1.19868 -1.57557,-0.92335 -4.44647,-3.644989 -4.44647,-4.215299 0,-1.04912 3.35009,-3.936617 6.01662,-5.185847 1.2574,-0.58907 1.89428,-0.71397 3.64067,-0.71397 1.74639,0 2.38327,0.1249 3.64067,0.71397 2.67234,1.25195 6.01662,4.136937 6.01662,5.190317 0,0.24208 -0.79453,1.18913 -1.76564,2.10457 -3.39923,3.204379 -7.35624,4.445039 -10.54094,3.304939 z m 6.14812,-1.94733 c 0.90572,-0.43686 2.32131,-1.410799 3.14577,-2.164309 l 1.49901,-1.37001 -1.54577,-1.40476 c -4.4698,-4.062057 -8.64493,-4.074427 -13.16458,-0.039 l -1.53966,1.3747 1.07719,1.09758 c 1.34258,1.367999 3.64882,2.783159 5.26771,3.232399 1.6478,0.45726 3.27071,0.23309 5.26033,-0.72659 z m -4.55716,-0.74344 c -1.1253,-0.49166 -1.85209,-1.597809 -1.85209,-2.818839 0,-0.9559 0.15084,-1.31505 0.84294,-2.00716 0.70058,-0.70057 1.0463,-0.84293 2.04711,-0.84293 2.66159,0 3.93382,3.13481 2.01738,4.97088 -0.77927,0.746589 -2.20087,1.071379 -3.05534,0.698049 z m 2.09777,-1.763179 c 0.53319,-0.53319 0.53319,-1.54567 0,-2.07887 -0.8987,-0.89869 -2.49465,-0.23371 -2.49465,1.03944 0,0.79824 0.65697,1.45521 1.45521,1.45521 0.34301,0 0.81076,-0.1871 1.03944,-0.41578 z"
         style="fill:#000000;stroke-width:0.264583"
         id="path236" /></g></g></svg>
