<?xml version="1.0" encoding="UTF-8" standalone="no"?>
<!-- Created with Inkscape (http://www.inkscape.org/) -->

<svg
   width="19.601418mm"
   height="13.743164mm"
   viewBox="0 0 19.601418 13.743164"
   version="1.1"
   id="svg5"
   xml:space="preserve"
   xmlns:inkscape="http://www.inkscape.org/namespaces/inkscape"
   xmlns:sodipodi="http://sodipodi.sourceforge.net/DTD/sodipodi-0.dtd"
   xmlns="http://www.w3.org/2000/svg"
   xmlns:svg="http://www.w3.org/2000/svg"><sodipodi:namedview
     id="namedview7"
     pagecolor="#ffffff"
     bordercolor="#000000"
     borderopacity="0.25"
     inkscape:showpageshadow="2"
     inkscape:pageopacity="0.0"
     inkscape:pagecheckerboard="0"
     inkscape:deskcolor="#d1d1d1"
     inkscape:document-units="mm"
     showgrid="false" /><defs
     id="defs2" /><g
     inkscape:label="Camada 1"
     inkscape:groupmode="layer"
     id="layer1"
     transform="translate(-103.92871,-90.47054)"><g
       id="g408"><rect
         style="fill:none;stroke-width:0.34166;stroke-linejoin:round"
         id="rect303"
         width="19.601421"
         height="13.743163"
         x="103.9287"
         y="90.470543" /><path
         style="fill:#000000;stroke-width:0.264583"
         d="m 107.28083,103.5415 c -0.29828,-0.35941 0.50624,-1.26555 6.01084,-6.770157 6.01039,-6.01039 6.37991,-6.33052 6.8103,-5.90012 0.4304,0.43039 0.41475,0.49766 -0.28854,1.23971 l -0.74364,0.78462 0.92604,0.69548 c 1.6541,1.24226 3.43958,3.13402 3.43958,3.64431 0,0.80359 -3.3253,3.725297 -5.41579,4.758477 -2.41846,1.19527 -4.28937,1.4135 -6.64694,0.77534 l -1.73193,-0.46881 -0.85433,0.82805 c -0.98444,0.95415 -1.04317,0.97027 -1.50559,0.4131 z m 9.99613,-2.78588 c 0.90571,-0.43686 2.3213,-1.410797 3.14576,-2.164307 l 1.49901,-1.37001 -1.52779,-1.38842 c -2.0008,-1.81828 -2.37958,-1.92333 -3.36869,-0.93422 -0.691,0.691 -0.74927,0.86119 -0.47213,1.37902 1.02552,1.9162 -1.78065,4.737777 -3.69368,3.71395 -0.49872,-0.26691 -0.68167,-0.22441 -1.22295,0.284097 -0.35007,0.32887 -0.63649,0.68926 -0.63649,0.80085 0,0.34937 2.19425,0.73198 3.43958,0.59975 0.65484,-0.0695 1.93166,-0.48385 2.83738,-0.92071 z m -2.4594,-2.506617 c 0.34698,-0.34698 0.60134,-1.43631 0.33538,-1.43631 -0.0442,0 -0.48429,0.41672 -0.97794,0.92604 -0.81313,0.83894 -0.84468,0.92605 -0.33539,0.92605 0.3092,0 0.74927,-0.1871 0.97795,-0.41578 z m -9.21442,0.89552 c -0.81527,-0.78966 -1.48231,-1.62822 -1.48231,-1.86348 0,-1.03292 3.38546,-3.95707 5.93005,-5.12203 1.63708,-0.74948 3.61796,-1.05642 5.06536,-0.78488 l 0.98967,0.18566 -0.55023,0.55023 c -0.40507,0.40507 -0.94471,0.5677 -2.04554,0.61646 -1.94107,0.086 -4.27987,1.22707 -6.32579,3.08636 l -1.54171,1.40108 1.25123,1.15334 1.25123,1.15334 -0.52982,0.529817 -0.52983,0.52983 z m 5.49527,-3.06006 c 0.43622,-0.84356 1.13265,-1.49334 1.88596,-1.75965 0.3149,-0.11132 -0.002,0.35451 -0.7838,1.15041 -0.72213,0.73561 -1.35027,1.33747 -1.39586,1.33747 -0.0456,0 0.0866,-0.3277 0.2937,-0.72823 z"
         id="path179"
         sodipodi:nodetypes="sssscsssscsssscsssssscsssssssssscssscccccscscsc" /></g></g></svg>
