<?xml version="1.0" encoding="UTF-8" standalone="no"?>
<!-- Created with Inkscape (http://www.inkscape.org/) -->

<svg
   width="71.62603mm"
   height="42.97562mm"
   viewBox="0 0 71.62603 42.97562"
   version="1.1"
   id="svg5"
   xml:space="preserve"
   xmlns:inkscape="http://www.inkscape.org/namespaces/inkscape"
   xmlns:sodipodi="http://sodipodi.sourceforge.net/DTD/sodipodi-0.dtd"
   xmlns="http://www.w3.org/2000/svg"
   xmlns:svg="http://www.w3.org/2000/svg"><sodipodi:namedview
     id="namedview7"
     pagecolor="#ffffff"
     bordercolor="#000000"
     borderopacity="0.25"
     inkscape:showpageshadow="2"
     inkscape:pageopacity="0.0"
     inkscape:pagecheckerboard="0"
     inkscape:deskcolor="#d1d1d1"
     inkscape:document-units="mm"
     showgrid="false" /><defs
     id="defs2" /><g
     inkscape:label="Camada 1"
     inkscape:groupmode="layer"
     id="layer1"
     transform="translate(117.85523,-42.641261)"><g
       id="g1169"><path
         style="fill:#8744b8;fill-opacity:1;stroke:none;stroke-width:0.360088"
         d="m -117.85523,79.661139 c 0,-2.305542 0.97654,-26.039291 13.1345,-34.727616 5.995987,-4.284862 14.0885,-0.448049 22.293049,-0.495796 8.388883,-0.04888 17.222579,-4.32733 23.02116,0.495796 12.267014,10.203393 13.486811,33.826937 13.124947,34.727616 -1.556208,3.873454 -9.379146,7.34864 -13.128651,4.626262 -4.258588,-3.091998 -3.950587,-4.083155 -8.236835,-5.014611 -11.946256,-2.596073 -15.967787,-1.976764 -27.498502,-0.840801 -4.383208,0.431821 -4.711417,1.385764 -9.778698,5.855299 -3.16435,2.791063 -12.93097,0.938861 -12.93097,-3.238385 z"
         id="path225-6-1"
         sodipodi:nodetypes="sssssssssss" /><g
         id="g531-6-4"
         transform="matrix(1.1955356,0,0,1.3379803,-208.64241,-64.060977)"
         style="fill:#ececec"><rect
           style="fill:#ececec;stroke:none;stroke-width:0.264583"
           id="rect505-8-6"
           width="1.8999763"
           height="8.169898"
           x="88.918892"
           y="85.688927" /><rect
           style="fill:#ececec;stroke:none;stroke-width:0.264583"
           id="rect505-5-4-2"
           width="1.8999763"
           height="8.169898"
           x="88.823891"
           y="-93.953827"
           transform="rotate(90)" /></g><ellipse
         style="fill:#ececec;stroke:none;stroke-width:0.403435"
         id="path585-6-6"
         cx="-90.703293"
         cy="68.467178"
         rx="4.1077871"
         ry="4.5972185" /><ellipse
         style="fill:#ececec;stroke:none;stroke-width:0.1031"
         id="path585-2-0-2"
         cx="-84.997993"
         cy="59.221695"
         rx="1.049768"
         ry="1.1748449" /><ellipse
         style="fill:#ececec;stroke:none;stroke-width:0.1031"
         id="path585-2-3-1-2"
         cx="-80.616356"
         cy="59.221695"
         rx="1.049768"
         ry="1.1748449" /><ellipse
         style="fill:#ececec;stroke:none;stroke-width:0.403435"
         id="path585-4-9-6"
         cx="-75.093681"
         cy="68.569351"
         rx="4.1077871"
         ry="4.5972185" /><ellipse
         style="fill:#ececec;stroke:none;stroke-width:0.17034"
         id="path585-4-3-4-9-5"
         cx="-63.500584"
         cy="60.126343"
         rx="1.7343991"
         ry="1.9410479" /><ellipse
         style="fill:#ececec;stroke:none;stroke-width:0.17034"
         id="path585-4-3-4-0-4-8"
         cx="-63.500584"
         cy="51.442703"
         rx="1.7343991"
         ry="1.9410479" /><ellipse
         style="fill:#ececec;stroke:none;stroke-width:0.17034"
         id="path585-4-3-4-3-6-5"
         cx="-59.39278"
         cy="55.799316"
         rx="1.7343991"
         ry="1.9410479" /><ellipse
         style="fill:#ececec;stroke:none;stroke-width:0.17034"
         id="path585-4-3-4-3-1-3-20"
         cx="-67.790909"
         cy="55.799316"
         rx="1.7343991"
         ry="1.9410479" /></g></g></svg>
