<?xml version="1.0" encoding="UTF-8" standalone="no"?>
<!-- Created with Inkscape (http://www.inkscape.org/) -->

<svg
   width="33.154816mm"
   height="16.523499mm"
   viewBox="0 0 33.154816 16.523499"
   version="1.1"
   id="svg5"
   xml:space="preserve"
   sodipodi:docname="partner3aa.svg"
   inkscape:version="1.2.2 (732a01da63, 2022-12-09)"
   xmlns:inkscape="http://www.inkscape.org/namespaces/inkscape"
   xmlns:sodipodi="http://sodipodi.sourceforge.net/DTD/sodipodi-0.dtd"
   xmlns="http://www.w3.org/2000/svg"
   xmlns:svg="http://www.w3.org/2000/svg"><sodipodi:namedview
     id="namedview7"
     pagecolor="#ffffff"
     bordercolor="#000000"
     borderopacity="0.25"
     inkscape:showpageshadow="2"
     inkscape:pageopacity="0.0"
     inkscape:pagecheckerboard="0"
     inkscape:deskcolor="#d1d1d1"
     inkscape:document-units="mm"
     showgrid="false"
     inkscape:zoom="3.5183361"
     inkscape:cx="-3.2685905"
     inkscape:cy="8.5267579"
     inkscape:window-width="1920"
     inkscape:window-height="1009"
     inkscape:window-x="-8"
     inkscape:window-y="-8"
     inkscape:window-maximized="1"
     inkscape:current-layer="layer1" /><defs
     id="defs2" /><g
     inkscape:label="Camada 1"
     inkscape:groupmode="layer"
     id="layer1"
     transform="translate(379.86878,219.88516)"><g
       id="g222"
       transform="matrix(0.97243988,0,0,0.97243988,22.736103,16.83337)"><path
         d="m -403.41104,-236.9923 c 0.24008,0.34289 0.22322,0.78662 -0.0424,1.11647 -0.0579,0.0719 -0.29534,0.27467 -0.52771,0.45073 -0.48316,0.36603 -0.74645,0.6582 -0.94971,1.05381 -0.065,0.12644 -0.12803,0.23101 -0.14028,0.23221 -0.0344,0.004 -0.14655,-0.59903 -0.16866,-0.9063 -0.0242,-0.33662 0.01,-0.64294 0.12541,-1.12841 0.11451,-0.48103 0.2885,-0.8236 0.50765,-0.99982 0.21121,-0.16986 0.44835,-0.25129 0.62162,-0.21335 0.18958,0.0413 0.45407,0.22321 0.57414,0.39466 z m 1.39354,-0.74003 c -0.0499,0.0609 -0.57097,0.42632 -0.66647,0.46743 -0.43101,0.18568 -1.0252,-0.23967 -0.97732,-0.69963 0.0144,-0.13781 0.24604,-0.70217 0.33065,-0.80579 0.035,-0.0428 0.0863,-0.007 0.68492,0.48437 0.35593,0.29184 0.63855,0.54098 0.62822,0.55362 z m 3.36031,-5.21404 c -0.24142,0.76046 -0.84323,1.9361 -1.55678,3.04105 -0.30664,0.4749 -1.1106,1.52195 -1.34757,1.75503 l -0.16532,0.1627 -0.69469,-0.56969 -0.6947,-0.56969 0.0328,-0.0725 c 0.0649,-0.14337 1.01779,-1.27352 1.38685,-1.64489 0.74463,-0.74917 1.52545,-1.42041 2.23606,-1.92203 0.38392,-0.27116 0.84291,-0.53406 0.87957,-0.504 0.0117,0.01 -0.0225,0.15538 -0.0762,0.32405 z"
         fill="#b3b3b3"
         id="path625-9"
         style="fill:#999999;stroke-width:0.0795213" /><g
         id="g296"
         transform="matrix(2.0045879,0,0,2.0045879,349.10014,236.94652)"><g
           aria-label="The"
           id="text182"
           style="font-size:3.175px;font-family:Pristina;-inkscape-font-specification:Pristina;fill:#999999;stroke-width:0.396875;stroke-linejoin:round"><path
             d="m -378.60468,-237.58039 q 0.003,0.0139 0.003,0.0248 0,0.045 -0.0558,0.0605 -0.003,0.002 -0.10697,0.0171 -0.2744,0.0387 -0.56431,0.0636 -0.12247,0.262 -0.30076,0.84956 -0.16433,0.5364 -0.24184,0.89607 -0.0264,0.11627 -0.0775,0.11627 -0.0326,0 -0.13177,-0.0341 -0.0357,-0.0108 -0.0388,-0.0418 0.003,0.031 0.003,-0.0946 0,-0.22789 0.0729,-0.41548 0.0279,-0.0698 0.062,-0.0698 0.009,0 0.0357,0.008 0.0279,0.006 0.0449,0.008 0.0419,-0.15813 0.19844,-0.62477 0.17673,-0.5271 0.19224,-0.57826 -0.23875,0.0186 -0.47749,0.0744 -0.2651,0.0651 -0.34727,0.13797 -0.093,0.0837 -0.093,0.16588 0,0.0884 0.10232,0.27596 0.0109,0.0202 0.0109,0.0372 0,0.0388 -0.0357,0.0388 -0.0248,0 -0.045,-0.0295 -0.12247,-0.17518 -0.15968,-0.27285 -0.0263,-0.0682 -0.0372,-0.19688 -0.0171,-0.18914 0.31161,-0.27906 0.42788,-0.11627 0.86352,-0.15503 0.0496,-0.10076 0.0729,-0.10076 0.0357,0 0.12092,0.0775 0.0403,0 0.2496,-0.031 0.0372,-0.006 0.076,-0.0543 0.0341,-0.045 0.16278,-0.0512 0.0698,-0.003 0.0961,0.0527 0.005,0.008 0.0341,0.12558 z"
             id="path177" /><path
             d="m -377.74117,-238.00827 q 0.0202,0.0155 0.0202,0.0341 0,0.0279 -0.0357,0.0279 -0.0155,0 -0.0326,-0.009 -0.0713,-0.0357 -0.10697,-0.0357 -0.0946,0 -0.21084,0.18914 -0.40927,0.66662 -0.60616,1.74563 0.2527,-0.48525 0.57826,-0.77515 0.0698,-0.062 0.10232,-0.062 0.009,0 0.0775,0.0434 0.0822,0.0341 0.093,0.0434 0.0403,0.0357 0.0403,0.12403 0,0.0248 -0.003,0.0543 -0.0264,0.27595 -0.15813,0.66817 0.0481,-0.0651 0.15192,-0.19068 0.0248,-0.0264 0.0419,-0.0264 0.0171,0 0.0171,0.0202 0,0.0232 -0.0202,0.0527 -0.0899,0.13022 -0.23874,0.38137 -0.0124,0.0248 -0.0605,0.13022 -0.0202,0.0496 -0.0558,0.0496 -0.0403,0 -0.11627,-0.0543 -0.031,-0.0217 -0.0109,-0.0682 0.26665,-0.66973 0.28215,-0.99994 0.005,-0.0946 -0.0263,-0.0946 -0.0202,0 -0.0853,0.0527 -0.11937,0.0961 -0.293,0.34107 -0.22945,0.32246 -0.35502,0.65887 -0.0341,0.0961 -0.0636,0.0961 -0.0264,0 -0.10387,-0.0636 -0.0388,-0.0326 -0.0264,-0.10852 0.17984,-0.98444 0.46819,-1.68207 0.21394,-0.51935 0.38603,-0.67903 0.0434,-0.0403 0.0853,-0.0403 0.0434,0 0.11007,0.0496 0.0775,0.0636 0.15503,0.12713 z"
             id="path179" /><path
             d="m -376.84355,-236.04405 q -0.37672,0.48214 -0.5302,0.48214 -0.0729,0 -0.18448,-0.10077 -0.11628,-0.0543 -0.11628,-0.14573 0,-0.017 0.003,-0.0357 0.0279,-0.21239 0.11317,-0.46974 -0.0574,-0.0295 -0.0574,-0.0558 0,-0.0217 0.0326,-0.0217 0.0248,0 0.0512,0.0139 0.13798,-0.31005 0.24805,-0.44028 0.0713,-0.0868 0.12867,-0.0868 0.0264,0 0.13023,0.045 -0.008,-0.0465 0.0263,-0.0543 0.002,0 0.0729,0 0.0667,0 0.0667,0.0233 0,0.005 -0.005,0.0264 -0.005,0.0217 -0.005,0.0403 0,0.0558 0.002,0.13798 0.002,0.0822 0.002,0.11007 0,0.19223 -0.10542,0.2682 -0.0961,0.0698 -0.21704,0.0698 -0.0636,0 -0.21084,-0.0341 -0.0264,0.0481 -0.0589,0.18759 -0.0434,0.17673 -0.0403,0.31316 0.002,0.0806 0.0512,0.0806 0.0186,0 0.0481,-0.009 0.17983,-0.0636 0.50074,-0.38757 0.0202,-0.0202 0.0403,-0.0202 0.0294,0 0.0294,0.0279 0,0.0171 -0.0155,0.0357 z m -0.18138,-0.68523 q 0,-0.0605 -0.0264,-0.0605 -0.017,0 -0.0496,0.0248 -0.15193,0.12247 -0.26665,0.42943 0.031,0.005 0.10852,0.009 0.12558,0.005 0.18759,-0.0574 0.0465,-0.0465 0.0512,-0.15348 -0.005,0.0791 -0.005,-0.19223 z"
             id="path181" /></g><g
           aria-label="artists hub"
           id="text186"
           style="font-size:5.09032px;font-family:Pristina;-inkscape-font-specification:Pristina;fill:#999999;stroke-width:0.63629;stroke-linejoin:round"><path
             d="m -378.6901,-233.14265 q -0.22866,0.6338 -0.31566,1.06379 0.0373,-0.0348 0.0969,-0.10687 0.0621,-0.0721 0.077,-0.0845 0.0348,-0.0447 0.0746,-0.0447 0.0373,0 0.0373,0.0373 0,0.0224 -0.0199,0.0522 -0.23363,0.34549 -0.31068,0.69843 -0.0224,0.0994 -0.0671,0.0994 -0.0423,0 -0.15659,-0.0795 -0.0671,-0.0447 -0.0771,-0.0746 -0.0124,-0.0273 0,-0.10937 0.10439,-0.63132 0.26098,-1.04888 -0.21624,0.35046 -0.58907,0.77548 -0.3256,0.37034 -0.46976,0.47224 -0.10439,0.0721 -0.15907,0.0721 -0.0447,0 -0.1367,-0.0721 -0.13174,-0.0795 -0.13174,-0.21872 0,-0.0273 0.005,-0.0621 0.0447,-0.36785 0.32312,-0.85501 0.27838,-0.48965 0.63878,-0.82519 0.11682,-0.10936 0.20878,-0.10688 0.0895,0.005 0.34051,0.23612 0.0224,0.0199 0.0224,0.0423 0,0.0398 -0.0522,0.0398 -0.0199,0 -0.0373,-0.007 -0.17647,-0.0746 -0.28334,0.005 -0.23364,0.1715 -0.51699,0.60398 -0.32809,0.4971 -0.39519,0.89478 -0.002,0.0174 -0.002,0.0323 0,0.0621 0.0497,0.0621 0.0845,0 0.20133,-0.11682 0.27837,-0.27092 0.59652,-0.68103 0.3256,-0.42502 0.41756,-0.64126 0.0671,-0.15907 0.087,-0.22369 0.0323,-0.11185 0.0696,-0.11185 0.0373,0 0.17399,0.1019 0.0572,0.0423 0.0621,0.0771 0.005,0.0298 -0.0224,0.10439 z"
             id="path184" /><path
             d="m -376.8707,-233.35641 q 0,0.3256 -0.087,0.62138 -0.0273,0.0895 -0.0746,0.0895 -0.0348,0 -0.1541,-0.0994 -0.0597,-0.0497 -0.0298,-0.14168 0.0696,-0.22618 0.0696,-0.36288 0,-0.0472 -0.0199,-0.0472 -0.0298,0 -0.0969,0.0895 -0.51699,0.67358 -0.773,1.51119 -0.082,0.26595 -0.13919,0.26595 -0.0224,0 -0.19635,-0.087 -0.0845,-0.0422 -0.0572,-0.16404 0.19636,-0.85999 0.42254,-1.45154 -0.18393,0.19387 -0.23364,0.26595 -0.0199,0.0298 -0.0547,0.0298 -0.0423,0 -0.0423,-0.0373 0,-0.0224 0.0199,-0.0497 0.12179,-0.14664 0.3256,-0.44739 0.0621,-0.10936 0.12428,-0.10936 0.0447,0 0.18144,0.0696 0.077,0.0398 0.0249,0.10688 -0.0547,0.0721 -0.20629,0.50953 -0.14416,0.42502 -0.19884,0.66611 0.33803,-0.7531 0.76802,-1.32974 0.082,-0.10936 0.13173,-0.10936 0.0447,0 0.12179,0.0597 0.10439,0.0124 0.13173,0.0323 0.0423,0.0298 0.0423,0.1193 z"
             id="path186" /><path
             d="m -375.43657,-234.65881 q 0.0696,0.0373 0.0696,0.0845 0,0.0323 -0.0472,0.0323 -0.01,0 -0.0323,-0.002 -0.0199,-0.005 -0.0298,-0.005 -0.0944,0 -0.22867,0.2063 -0.11931,0.18392 -0.33057,0.80033 -0.0199,0.0547 -0.0149,0.0646 0.007,0.0174 0.0646,0.0199 0.14664,0.0124 0.39271,-0.01 0.0845,-0.007 0.0845,0.0721 0,0.0547 -0.0646,0.0671 -0.0522,0.007 -0.5493,0.0447 -0.29826,0.87242 -0.36288,1.47639 -0.002,0.0323 -0.002,0.0572 0,0.0845 0.0423,0.0845 0.0671,0 0.40514,-0.3256 0.0398,-0.0398 0.0771,-0.0398 0.0323,0 0.0398,0.0273 0.007,0.0298 -0.0224,0.0696 -0.20133,0.26595 -0.3952,0.45237 -0.082,0.077 -0.1367,0.077 -0.0547,0 -0.16902,-0.087 -0.14167,-0.0373 -0.14167,-0.14913 0,-0.0174 0.005,-0.0398 0.092,-0.64127 0.3604,-1.5783 -0.13173,-0.0174 -0.23861,-0.0348 -0.0472,-0.007 -0.0472,-0.0596 0,-0.0572 0.0497,-0.0696 0.0497,-0.0124 0.18393,-0.0547 0.082,-0.0273 0.15907,-0.0746 0.26595,-0.8227 0.41757,-1.06628 0.087,-0.13919 0.18641,-0.13919 0.0944,0 0.27589,0.0994 z"
             id="path188" /><path
             d="m -374.60144,-234.2661 q 0.0398,0.0298 0.0398,0.0671 0,0.0721 -0.21375,0.22369 -0.14167,0.0969 -0.27341,0.0696 -0.0746,-0.0149 -0.12924,-0.0547 -0.0174,-0.0149 -0.0273,-0.0298 -0.007,-0.0174 -0.002,-0.0273 0.007,-0.01 0.0298,-0.005 0.22866,-0.19884 0.30074,-0.28584 0.0572,-0.0646 0.082,-0.0646 0.0447,0 0.19386,0.10688 z m -0.35045,1.08865 q -0.0597,0.33554 -0.31069,1.11599 0.0721,-0.0646 0.19884,-0.23612 0.0174,-0.0224 0.0348,-0.0224 0.0398,0 0.01,0.0696 -0.0124,0.0273 -0.20878,0.34052 -0.14913,0.23861 -0.21873,0.42254 -0.0224,0.0572 -0.082,0.0572 -0.0597,0 -0.16156,-0.0572 -0.0646,-0.0348 -0.0646,-0.0522 0,-0.0149 0.0273,-0.0646 0.13422,-0.23613 0.29826,-0.7904 0.15659,-0.53686 0.17647,-0.79784 0.007,-0.11185 -0.0224,-0.11185 -0.0224,0 -0.0795,0.0547 l -0.15411,0.14416 q -0.082,0.0746 -0.082,0.007 0,-0.0199 0.0224,-0.0497 0.11682,-0.16405 0.24855,-0.31069 0.0398,-0.0423 0.077,-0.0423 0.0398,0 0.11682,0.0547 0.11434,0.0298 0.12676,0.0373 0.0572,0.0348 0.0572,0.12924 0,0.0447 -0.01,0.10191 z"
             id="path190" /><path
             d="m -373.50781,-233.4782 q 0,0.11185 -0.0596,0.35792 -0.0224,0.0845 -0.0497,0.10936 -0.0124,0.0124 -0.0845,0.0373 -0.092,0.0348 -0.11433,0.0348 -0.0373,0 -0.0373,-0.0497 0,-0.0273 0.01,-0.0721 0.0597,-0.24607 0.0447,-0.34052 -0.0124,-0.0969 0.0572,-0.12179 0.12179,-0.0621 0.15659,-0.0621 0.077,0 0.077,0.10687 z m -0.39768,1.42669 q 0.007,0.29826 -0.33058,0.40762 -0.0423,0.10439 -0.0795,0.14416 -0.0572,0.0597 -0.16902,0.0696 -0.0721,0.005 -0.1541,-0.007 -0.14664,-0.0224 -0.3604,-0.0547 -0.0596,-0.01 -0.0721,-0.0721 0.01,-0.0671 0.13919,-0.0795 0.17647,-0.0124 0.52196,-0.0621 0.12925,-0.0298 0.18393,-0.14664 0.0323,-0.0597 0.0323,-0.14665 0,-0.15659 -0.15659,-0.55178 -0.1541,-0.38526 -0.14416,-0.5145 0.0199,-0.31069 0.57415,-0.43248 0.0547,-0.0124 0.0547,0.0398 0,0.0298 -0.0398,0.0472 -0.26844,0.11682 -0.26844,0.28832 0,0.0671 0.0249,0.16902 0.0249,0.0994 0.14913,0.48218 0.092,0.2759 0.0944,0.42006 z"
             id="path192" /><path
             d="m -372.03639,-234.65881 q 0.0696,0.0373 0.0696,0.0845 0,0.0323 -0.0472,0.0323 -0.01,0 -0.0323,-0.002 -0.0199,-0.005 -0.0298,-0.005 -0.0944,0 -0.22867,0.2063 -0.1193,0.18392 -0.33057,0.80033 -0.0199,0.0547 -0.0149,0.0646 0.007,0.0174 0.0646,0.0199 0.14665,0.0124 0.39271,-0.01 0.0845,-0.007 0.0845,0.0721 0,0.0547 -0.0646,0.0671 -0.0522,0.007 -0.5493,0.0447 -0.29826,0.87242 -0.36289,1.47639 -0.002,0.0323 -0.002,0.0572 0,0.0845 0.0423,0.0845 0.0671,0 0.40514,-0.3256 0.0398,-0.0398 0.0771,-0.0398 0.0323,0 0.0398,0.0273 0.007,0.0298 -0.0224,0.0696 -0.20133,0.26595 -0.3952,0.45237 -0.082,0.077 -0.1367,0.077 -0.0547,0 -0.16901,-0.087 -0.14168,-0.0373 -0.14168,-0.14913 0,-0.0174 0.005,-0.0398 0.092,-0.64127 0.3604,-1.5783 -0.13173,-0.0174 -0.23861,-0.0348 -0.0472,-0.007 -0.0472,-0.0596 0,-0.0572 0.0497,-0.0696 0.0497,-0.0124 0.18393,-0.0547 0.082,-0.0273 0.15907,-0.0746 0.26595,-0.8227 0.41756,-1.06628 0.087,-0.13919 0.18642,-0.13919 0.0944,0 0.27589,0.0994 z"
             id="path194" /><path
             d="m -371.0745,-233.4782 q 0,0.11185 -0.0596,0.35792 -0.0224,0.0845 -0.0497,0.10936 -0.0124,0.0124 -0.0845,0.0373 -0.092,0.0348 -0.11433,0.0348 -0.0373,0 -0.0373,-0.0497 0,-0.0273 0.01,-0.0721 0.0596,-0.24607 0.0447,-0.34052 -0.0124,-0.0969 0.0572,-0.12179 0.12179,-0.0621 0.15659,-0.0621 0.077,0 0.077,0.10687 z m -0.39768,1.42669 q 0.007,0.29826 -0.33057,0.40762 -0.0423,0.10439 -0.0795,0.14416 -0.0572,0.0597 -0.16901,0.0696 -0.0721,0.005 -0.15411,-0.007 -0.14664,-0.0224 -0.36039,-0.0547 -0.0597,-0.01 -0.0721,-0.0721 0.01,-0.0671 0.13918,-0.0795 0.17648,-0.0124 0.52196,-0.0621 0.12925,-0.0298 0.18393,-0.14664 0.0323,-0.0597 0.0323,-0.14665 0,-0.15659 -0.15659,-0.55178 -0.1541,-0.38526 -0.14416,-0.5145 0.0199,-0.31069 0.57416,-0.43248 0.0547,-0.0124 0.0547,0.0398 0,0.0298 -0.0398,0.0472 -0.26844,0.11682 -0.26844,0.28832 0,0.0671 0.0249,0.16902 0.0249,0.0994 0.14913,0.48218 0.092,0.2759 0.0944,0.42006 z"
             id="path196" /><path
             d="m -368.10929,-235.34481 q 0.0323,0.0248 0.0323,0.0547 0,0.0447 -0.0572,0.0447 -0.0249,0 -0.0522,-0.0149 -0.11433,-0.0572 -0.1715,-0.0572 -0.15162,0 -0.33803,0.30323 -0.65617,1.06877 -0.97183,2.79868 0.40514,-0.77796 0.92709,-1.24275 0.11185,-0.0994 0.16405,-0.0994 0.0149,0 0.12427,0.0696 0.13173,0.0547 0.14913,0.0696 0.0646,0.0572 0.0646,0.19884 0,0.0398 -0.005,0.087 -0.0422,0.44242 -0.25352,1.07125 0.077,-0.10439 0.24358,-0.30571 0.0398,-0.0423 0.0671,-0.0423 0.0273,0 0.0273,0.0323 0,0.0373 -0.0323,0.0845 -0.14416,0.20878 -0.38277,0.61144 -0.0199,0.0398 -0.0969,0.20878 -0.0323,0.0795 -0.0895,0.0795 -0.0646,0 -0.18641,-0.087 -0.0497,-0.0348 -0.0174,-0.10936 0.4275,-1.07374 0.45236,-1.60315 0.007,-0.15162 -0.0423,-0.15162 -0.0323,0 -0.13671,0.0845 -0.19138,0.1541 -0.46976,0.54681 -0.36785,0.51699 -0.56918,1.05634 -0.0547,0.1541 -0.10191,0.1541 -0.0423,0 -0.16652,-0.1019 -0.0621,-0.0522 -0.0423,-0.17399 0.28832,-1.5783 0.75063,-2.69678 0.343,-0.83264 0.61889,-1.08865 0.0696,-0.0646 0.1367,-0.0646 0.0696,0 0.17647,0.0795 0.12428,0.1019 0.24855,0.20381 z"
             id="path198" /><path
             d="m -366.06869,-233.2893 q -0.33057,0.61392 -0.49461,1.4416 0.0696,-0.12179 0.16901,-0.31069 0.0124,-0.0348 0.0398,-0.0348 0.0373,0 0.0373,0.0472 0,0.0149 -0.007,0.0323 -0.15908,0.36288 -0.20879,0.55924 -0.0298,0.12427 -0.0795,0.12427 -0.0497,0 -0.19387,-0.0969 -0.0771,-0.0547 -0.0522,-0.19387 0.10439,-0.54184 0.25104,-0.94201 -0.4797,0.78045 -0.80531,1.15079 -0.0721,0.082 -0.15658,0.082 -0.0696,0 -0.16405,-0.0572 -0.1715,-0.0298 -0.1715,-0.17896 0,-0.0273 0.005,-0.0597 0.0621,-0.71086 0.2585,-1.18062 -0.0423,0.0398 -0.12676,0.11682 -0.0323,0.0273 -0.0497,0.0149 -0.0199,-0.0149 0.007,-0.0572 0.13422,-0.19636 0.15908,-0.2585 0.077,-0.19387 0.16155,-0.30074 0.0447,-0.0547 0.0944,-0.0547 0.0671,0 0.19636,0.0795 0.0348,0.0224 0.0348,0.0447 0,0 -0.0547,0.082 -0.12427,0.1889 -0.26346,0.66612 -0.15162,0.51698 -0.1541,0.84259 0,0.10687 0.0447,0.10687 0.0398,0 0.12924,-0.092 0.19139,-0.20381 0.55427,-0.77051 0.32063,-0.49959 0.38774,-0.6512 0.11185,-0.25352 0.18144,-0.29826 0.0447,-0.0298 0.0795,-0.0298 0.0348,0 0.13422,0.0522 0.0994,0.0522 0.0994,0.077 0,0.007 -0.0174,0.0199 -0.0174,0.0124 -0.0249,0.0273 z"
             id="path200" /><path
             d="m -363.956,-235.34481 q 0.0298,0.0224 0.0298,0.0497 0,0.0497 -0.0597,0.0497 -0.0224,0 -0.0472,-0.0149 -0.11433,-0.0597 -0.1715,-0.0597 -0.1541,0 -0.343,0.30572 -0.67108,1.08617 -0.97183,2.85088 0.25849,-0.43745 0.38525,-0.61889 0.2585,-0.37283 0.53687,-0.62387 0.13422,-0.12179 0.2411,-0.12179 0.0547,0 0.1715,0.0696 0.22121,0.10439 0.20132,0.31566 -0.0423,0.48219 -0.24109,0.94698 -0.19387,0.45484 -0.45982,0.71334 -0.0746,0.0721 -0.1541,0.0721 -0.16156,0 -0.44739,-0.36786 -0.0323,-0.0422 -0.0323,-0.0721 0,-0.0373 0.0423,-0.0373 0.0422,0 0.082,0.0348 0.14665,0.12427 0.25104,0.12427 0.1019,0 0.19635,-0.1193 0.1715,-0.21873 0.31069,-0.59404 0.15907,-0.42254 0.15907,-0.75559 0,-0.12925 -0.087,-0.12925 -0.0497,0 -0.11185,0.0522 -0.30571,0.26346 -0.62137,0.75062 -0.33306,0.51947 -0.48468,1.00166 -0.0273,0.092 -0.0696,0.092 -0.0199,0 -0.0522,-0.0224 -0.12676,-0.0845 -0.14416,-0.0994 -0.0497,-0.0497 -0.0497,-0.12924 0,-0.0398 0.0124,-0.0969 0.29081,-1.58327 0.74565,-2.69678 0.343,-0.83761 0.61641,-1.08865 0.0721,-0.0671 0.13919,-0.0671 0.0696,0 0.17647,0.082 0.12427,0.1019 0.25104,0.20381 z"
             id="path202" /></g></g></g></g></svg>
