<?xml version="1.0" encoding="UTF-8" standalone="no"?>
<!-- Created with Inkscape (http://www.inkscape.org/) -->

<svg
   width="118.97171mm"
   height="118.97152mm"
   viewBox="0 0 118.97171 118.97152"
   version="1.1"
   id="svg1"
   xml:space="preserve"
   xmlns="http://www.w3.org/2000/svg"
   xmlns:svg="http://www.w3.org/2000/svg"><defs
     id="defs1" /><g
     id="layer1"
     transform="translate(-273.89164,-104.31781)"><g
       id="g8"
       transform="translate(228.53799,15.319465)"><path
         style="fill:#e4f8d9"
         d="m 102.37613,207.84452 c 0.32742,-0.0631 0.86321,-0.0631 1.19063,0 0.32742,0.0631 0.0595,0.11466 -0.59531,0.11466 -0.65485,0 -0.92274,-0.0516 -0.59532,-0.11466 z m 3.8401,-0.003 c 0.40218,-0.0608 0.99749,-0.0592 1.32292,0.004 0.32542,0.0628 -0.004,0.11256 -0.73125,0.11057 -0.7276,-0.002 -0.99385,-0.0534 -0.59167,-0.11418 z m 57.89485,-55.52698 c 0.0127,-0.30822 0.0754,-0.37092 0.15985,-0.15985 0.0764,0.19099 0.067,0.4192 -0.0209,0.50712 -0.0879,0.0879 -0.15045,-0.0684 -0.13896,-0.34727 z M 45.353665,150.88125 c 0,-0.50932 0.05445,-0.71768 0.121,-0.46302 0.06655,0.25466 0.06655,0.67138 0,0.92604 -0.06655,0.25466 -0.121,0.0463 -0.121,-0.46302 z m 0,-4.7625 c 0,-0.50932 0.05445,-0.71768 0.121,-0.46302 0.06655,0.25466 0.06655,0.67138 0,0.92604 -0.06655,0.25466 -0.121,0.0463 -0.121,-0.46302 z m 118.757415,-1.47726 c 0.0127,-0.30822 0.0754,-0.37092 0.15985,-0.15985 0.0764,0.191 0.067,0.4192 -0.0209,0.50712 -0.0879,0.0879 -0.15045,-0.0684 -0.13896,-0.34727 z M 59.579781,109.77094 c 0,-0.0549 0.208359,-0.2633 0.46302,-0.46302 0.419644,-0.32911 0.429003,-0.31975 0.0999,0.0999 -0.345643,0.44073 -0.562915,0.58089 -0.562915,0.36313 z m 89.007149,-1.55375 -0.50403,-0.59531 0.59531,0.50403 c 0.32743,0.27721 0.59532,0.5451 0.59532,0.59531 0,0.21173 -0.21294,0.0554 -0.6866,-0.50403 z m -3.70417,-3.70417 -0.50403,-0.59531 0.59532,0.50403 c 0.55944,0.47366 0.71576,0.6866 0.50402,0.6866 -0.0502,0 -0.31809,-0.26789 -0.59531,-0.59532 z M 100.80517,89.052596 c 0.191,-0.07643 0.4192,-0.06703 0.50712,0.02089 0.0879,0.08792 -0.0684,0.150453 -0.34727,0.138964 -0.30822,-0.01269 -0.37092,-0.07539 -0.15985,-0.159852 z m 7.65638,0.0055 c 0.1819,-0.0734 0.47956,-0.0734 0.66146,0 0.1819,0.0734 0.0331,0.133452 -0.33073,0.133452 -0.3638,0 -0.51263,-0.06005 -0.33073,-0.133452 z"
         id="path14" /><path
         style="fill:#d8f6c9"
         d="m 104.36051,207.84886 c 0.25466,-0.0666 0.67138,-0.0666 0.92604,0 0.25466,0.0666 0.0463,0.121 -0.46302,0.121 -0.50932,0 -0.71768,-0.0545 -0.46302,-0.121 z m 59.77146,-56.43844 c 0,-0.36381 0.0601,-0.51263 0.13345,-0.33073 0.0734,0.1819 0.0734,0.47955 0,0.66146 -0.0734,0.1819 -0.13345,0.0331 -0.13345,-0.33073 z M 45.376968,148.5 c 0,-0.94589 0.04802,-1.33284 0.106712,-0.8599 0.05869,0.47295 0.05869,1.24685 0,1.7198 -0.05869,0.47294 -0.106712,0.086 -0.106712,-0.8599 z m 118.734112,-3.06476 c 0.0127,-0.30822 0.0754,-0.37092 0.15985,-0.15985 0.0764,0.191 0.067,0.4192 -0.0209,0.50712 -0.0879,0.0879 -0.15045,-0.0684 -0.13896,-0.34727 z m -16.58248,-38.27638 -0.50403,-0.59532 0.59531,0.50403 c 0.55945,0.47366 0.71576,0.6866 0.50403,0.6866 -0.0502,0 -0.3181,-0.26789 -0.59531,-0.59531 z m -1.5875,-1.5875 -0.50403,-0.59532 0.59531,0.50403 c 0.55945,0.47366 0.71576,0.6866 0.50403,0.6866 -0.0502,0 -0.3181,-0.26789 -0.59531,-0.59531 z M 101.59892,89.052596 c 0.191,-0.07643 0.4192,-0.06703 0.50712,0.02089 0.0879,0.08792 -0.0683,0.150453 -0.34727,0.138964 -0.30822,-0.01269 -0.37092,-0.07539 -0.15985,-0.159852 z"
         id="path13" /><path
         style="fill:#c8f3b1"
         d="m 99.746836,207.58592 c 0.190996,-0.0764 0.419204,-0.067 0.507114,0.0209 0.0879,0.0879 -0.0684,0.15045 -0.347262,0.13897 -0.308224,-0.0127 -0.370919,-0.0754 -0.159852,-0.15986 z m 9.789584,0 c 0.19099,-0.0764 0.4192,-0.067 0.50712,0.0209 0.0879,0.0879 -0.0683,0.15045 -0.34727,0.13897 -0.30822,-0.0127 -0.37092,-0.0754 -0.15985,-0.15986 z M 66.425198,193.80989 c -0.329107,-0.41964 -0.319749,-0.429 0.0999,-0.0999 0.254661,0.19972 0.463021,0.40808 0.463021,0.46302 0,0.21776 -0.217272,0.0776 -0.562916,-0.36313 z m -3.670417,-3.37343 c -1.084123,-1.09141 -1.9116,-1.98438 -1.83884,-1.98438 0.07276,0 1.019301,0.89297 2.103423,1.98438 1.084122,1.0914 1.9116,1.98437 1.838839,1.98437 -0.07276,0 -1.0193,-0.89297 -2.103422,-1.98437 z m 82.814579,1.05833 c 0.49365,-0.50932 0.95709,-0.92604 1.02985,-0.92604 0.0728,0 -0.27161,0.41672 -0.76527,0.92604 -0.49365,0.50932 -0.95708,0.92604 -1.02984,0.92604 -0.0728,0 0.2716,-0.41672 0.76526,-0.92604 z m 1.5875,-1.538 c 0,-0.0455 0.38695,-0.43249 0.8599,-0.8599 l 0.85989,-0.7771 -0.7771,0.8599 c -0.72438,0.80154 -0.94269,0.98151 -0.94269,0.7771 z m 2.64583,-2.92752 c 0,-0.0549 0.20836,-0.2633 0.46302,-0.46302 0.41965,-0.32911 0.42901,-0.31975 0.0999,0.0999 -0.34565,0.44073 -0.56292,0.58089 -0.56292,0.36313 z m 14.04381,-32.86278 c 0.0127,-0.30822 0.0754,-0.37092 0.15985,-0.15985 0.0764,0.191 0.067,0.4192 -0.0209,0.50712 -0.0879,0.0879 -0.15045,-0.0683 -0.13896,-0.34727 z M 45.577753,153.37274 c 0.0127,-0.30822 0.07539,-0.37092 0.159852,-0.15985 0.07643,0.191 0.06703,0.4192 -0.02089,0.50712 -0.08792,0.0879 -0.150453,-0.0684 -0.138964,-0.34727 z m 118.609077,-5.00503 c 6.8e-4,-1.45521 0.0451,-2.01677 0.0987,-1.2479 0.0536,0.76886 0.053,1.95948 -0.001,2.64583 -0.0543,0.68635 -0.0982,0.0573 -0.0975,-1.39793 z M 45.577753,143.58316 c 0.0127,-0.30822 0.07539,-0.37092 0.159852,-0.15985 0.07643,0.19099 0.06703,0.4192 -0.02089,0.50712 -0.08792,0.0879 -0.150453,-0.0684 -0.138964,-0.34727 z M 163.8465,142.52483 c 0.0127,-0.30823 0.0754,-0.37092 0.15985,-0.15986 0.0764,0.191 0.067,0.4192 -0.0209,0.50712 -0.0879,0.0879 -0.15045,-0.0683 -0.13896,-0.34726 z m -14.34214,-33.11702 c -0.32911,-0.41964 -0.31975,-0.429 0.0999,-0.0999 0.44072,0.34564 0.58088,0.56292 0.36312,0.56292 -0.0549,0 -0.2633,-0.20836 -0.46302,-0.46303 z m -87.807913,-1.78593 c 0.493655,-0.50933 0.957086,-0.92604 1.029847,-0.92604 0.07276,0 -0.271608,0.41671 -0.765263,0.92604 -0.493656,0.50932 -0.957087,0.92604 -1.029847,0.92604 -0.07276,0 0.271608,-0.41672 0.765263,-0.92604 z m 2.248958,-2.24896 c 0.56839,-0.58208 1.092966,-1.05833 1.165727,-1.05833 0.07276,0 -0.332754,0.47625 -0.901143,1.05833 -0.568389,0.58208 -1.092966,1.05833 -1.165727,1.05833 -0.07276,0 0.332754,-0.47625 0.901143,-1.05833 z M 98.953086,89.317179 c 0.190996,-0.07643 0.419199,-0.06703 0.507118,0.02089 0.08792,0.08792 -0.06835,0.150453 -0.347266,0.138965 -0.308224,-0.0127 -0.370919,-0.07539 -0.159852,-0.159853 z m 11.641664,0 c 0.191,-0.07643 0.4192,-0.06703 0.50712,0.02089 0.0879,0.08792 -0.0684,0.150453 -0.34727,0.138965 -0.30822,-0.0127 -0.37091,-0.07539 -0.15985,-0.159853 z m -7.01833,-0.279655 c 0.84206,-0.05267 2.15174,-0.05218 2.91041,0.0011 0.75868,0.05326 0.0697,0.09635 -1.53101,0.09575 -1.60073,-5.97e-4 -2.22146,-0.04418 -1.3794,-0.09684 z"
         id="path12" /><path
         style="fill:#afed8e"
         d="m 98.341237,207.45852 c -11.210503,-1.26546 -22.81652,-6.18592 -31.220832,-13.23631 -6.761842,-5.67253 -11.745718,-11.995 -15.498155,-19.66075 -6.901018,-14.0979 -7.947303,-29.95545 -2.966076,-44.95402 6.319229,-19.02733 22.207182,-33.72815 41.77927,-38.657566 8.397954,-2.115104 18.385426,-2.314994 26.823496,-0.536847 21.19529,4.466463 38.52057,20.577353 44.54023,41.418223 1.58715,5.49495 2.06832,8.71244 2.22023,14.84656 0.19638,7.92917 -0.58725,13.48888 -2.8976,20.55793 -1.23822,3.78861 -4.5088,10.52881 -6.70014,13.80801 -10.0271,15.0049 -25.75647,24.55388 -43.56843,26.44948 -3.02568,0.32201 -9.51129,0.30401 -12.511993,-0.0347 z m 21.828013,-52.74071 27.11872,-27.11968 -6.2833,-6.2833 -6.28329,-6.2833 -20.90164,20.90038 -20.90163,20.90038 -8.99663,-8.99371 -8.99663,-8.99372 -6.282693,6.2827 -6.282692,6.28269 15.211898,15.21362 c 8.366544,8.3675 15.272036,15.21363 15.345537,15.21363 0.0735,0 12.33706,-12.20386 27.25235,-27.11969 z"
         id="path11" /><path
         style="fill:#8cdb80"
         d="M 77.570584,166.55781 62.357906,151.27812 77.637592,166.4908 c 14.203211,14.14093 15.398454,15.3467 15.212678,15.3467 -0.03685,0 -6.912713,-6.87586 -15.279686,-15.27969 z m 36.116486,-30.49323 c 11.49545,-11.49614 20.96036,-20.90208 21.03312,-20.90208 0.0728,0 -9.27308,9.40594 -20.76854,20.90208 -11.49545,11.49615 -20.960355,20.90209 -21.033115,20.90209 -0.07276,0 9.273085,-9.40594 20.768535,-20.90209 z"
         id="path10" /><path
         style="fill:#51bb66"
         d="m 119.90364,154.78467 27.11833,-27.18512 -6.2157,-6.28467 -6.2157,-6.28467 6.34886,6.28412 6.34886,6.28412 -27.25149,27.18567 -27.25149,27.18567 z m -36.115945,-6.87998 -8.994373,-9.06198 9.061978,8.99437 c 4.984089,4.94691 9.061979,9.0248 9.061979,9.06198 0,0.18663 -0.770375,-0.57233 -9.129584,-8.99437 z"
         id="path9" /><path
         style="fill:#008f44"
         d="m 77.769014,166.55695 c -8.257829,-8.25878 -15.014233,-15.13369 -15.014233,-15.27758 0,-0.14388 2.707867,-2.97139 6.017482,-6.28336 l 6.017483,-6.02175 9.064172,9.06132 9.064171,9.06131 20.901631,-20.90038 20.90164,-20.90038 6.15101,6.15101 6.151,6.151 -26.98641,26.98739 c -14.84253,14.84306 -27.046558,26.98738 -27.120065,26.98738 -0.07351,0 -6.890053,-6.75718 -15.147881,-15.01596 z"
         id="path8" /></g></g></svg>
